<svg xmlns="http://www.w3.org/2000/svg" xmlns:xlink="http://www.w3.org/1999/xlink" width="443" height="422" viewBox="0 0 443 422">
  <defs>
    <filter id="Rectangle_9" x="0" y="0" width="443" height="422" filterUnits="userSpaceOnUse">
      <feOffset dy="3" input="SourceAlpha"/>
      <feGaussianBlur stdDeviation="3" result="blur"/>
      <feFlood flood-opacity="0.161"/>
      <feComposite operator="in" in2="blur"/>
      <feComposite in="SourceGraphic"/>
    </filter>
  </defs>
  <g id="drukFrontow" transform="translate(9 6)">
    <g transform="matrix(1, 0, 0, 1, -9, -6)" filter="url(#Rectangle_9)">
      <g id="Rectangle_9-2" data-name="Rectangle 9" transform="translate(9 6)" fill="#fff" stroke="#707070" stroke-width="1">
        <rect width="425" height="404" rx="70" stroke="none"/>
        <rect x="0.5" y="0.5" width="424" height="403" rx="69.5" fill="none"/>
      </g>
    </g>
    <text id="Druk_zamówień_frontów" data-name="Druk zamówień frontów" transform="translate(68 266)" fill="#282f39" font-size="40" font-family="Roboto-Medium, Roboto" font-weight="500"><tspan x="-138.125" y="38">Druk zamówień </tspan><tspan x="-68.887" y="86">frontów</tspan></text>
    <g id="formIcon" transform="translate(144.449 26.628)">
      <path id="Path_5" data-name="Path 5" d="M0,0H89.658V152.63H0Z" fill="none"/>
      <path id="Path_6" data-name="Path 6" d="M3,87.015H23.921V60.343H3Zm0,53.343H23.921V113.686H3ZM3,33.672H23.921V7H3ZM44.842,87.015H191.288V60.343H44.842Zm0,53.343H191.288V113.686H44.842ZM44.842,7V33.672H191.288V7Z" transform="translate(-29.093 35.015)"/>
    </g>
  </g>
</svg>
