<svg xmlns="http://www.w3.org/2000/svg" width="1340" height="690.884" viewBox="0 0 1340 690.884">
  <g id="section2continueRect" fill="none" stroke-dasharray="25 5">
    <path d="M0,0H1340V690.884H0Z" stroke="none"/>
    <path d="M 30 0 L 55 0 L 55 5 L 30 5 L 30 0 Z M 60 0 L 85 0 L 85 5 L 60 5 L 60 0 Z M 90 0 L 115 0 L 115 5 L 90 5 L 90 0 Z M 120 0 L 145 0 L 145 5 L 120 5 L 120 0 Z M 150 0 L 175 0 L 175 5 L 150 5 L 150 0 Z M 180 0 L 205 0 L 205 5 L 180 5 L 180 0 Z M 210 0 L 235 0 L 235 5 L 210 5 L 210 0 Z M 240 0 L 265 0 L 265 5 L 240 5 L 240 0 Z M 270 0 L 295 0 L 295 5 L 270 5 L 270 0 Z M 300 0 L 325 0 L 325 5 L 300 5 L 300 0 Z M 330 0 L 355 0 L 355 5 L 330 5 L 330 0 Z M 360 0 L 385 0 L 385 5 L 360 5 L 360 0 Z M 390 0 L 415 0 L 415 5 L 390 5 L 390 0 Z M 420 0 L 445 0 L 445 5 L 420 5 L 420 0 Z M 450 0 L 475 0 L 475 5 L 450 5 L 450 0 Z M 480 0 L 505 0 L 505 5 L 480 5 L 480 0 Z M 510 0 L 535 0 L 535 5 L 510 5 L 510 0 Z M 540 0 L 565 0 L 565 5 L 540 5 L 540 0 Z M 570 0 L 595 0 L 595 5 L 570 5 L 570 0 Z M 600 0 L 625 0 L 625 5 L 600 5 L 600 0 Z M 630 0 L 655 0 L 655 5 L 630 5 L 630 0 Z M 660 0 L 685 0 L 685 5 L 660 5 L 660 0 Z M 690 0 L 715 0 L 715 5 L 690 5 L 690 0 Z M 720 0 L 745 0 L 745 5 L 720 5 L 720 0 Z M 750 0 L 775 0 L 775 5 L 750 5 L 750 0 Z M 780 0 L 805 0 L 805 5 L 780 5 L 780 0 Z M 810 0 L 835 0 L 835 5 L 810 5 L 810 0 Z M 840 0 L 865 0 L 865 5 L 840 5 L 840 0 Z M 870 0 L 895 0 L 895 5 L 870 5 L 870 0 Z M 900 0 L 925 0 L 925 5 L 900 5 L 900 0 Z M 930 0 L 955 0 L 955 5 L 930 5 L 930 0 Z M 960 0 L 985 0 L 985 5 L 960 5 L 960 0 Z M 990 0 L 1015 0 L 1015 5 L 990 5 L 990 0 Z M 1020 0 L 1045 0 L 1045 5 L 1020 5 L 1020 0 Z M 1050 0 L 1075 0 L 1075 5 L 1050 5 L 1050 0 Z M 1080 0 L 1105 0 L 1105 5 L 1080 5 L 1080 0 Z M 1110 0 L 1135 0 L 1135 5 L 1110 5 L 1110 0 Z M 1140 0 L 1165 0 L 1165 5 L 1140 5 L 1140 0 Z M 1170 0 L 1195 0 L 1195 5 L 1170 5 L 1170 0 Z M 1200 0 L 1225 0 L 1225 5 L 1200 5 L 1200 0 Z M 1230 0 L 1255 0 L 1255 5 L 1230 5 L 1230 0 Z M 1260 0 L 1285 0 L 1285 5 L 1260 5 L 1260 0 Z M 1290 0 L 1315 0 L 1315 5 L 1290 5 L 1290 0 Z M 1320 0 L 1340 0 L 1340 5 L 1320 5 L 1320 0 Z M 1335 10 L 1340 10 C 1340 10 1340 35 1340 35 L 1335 35 L 1335 10 Z M 1335 40 L 1340 40 C 1340 40 1340 65 1340 65 L 1335 65 L 1335 40 Z M 1335 70 L 1340 70 C 1340 70 1340 95 1340 95 L 1335 95 L 1335 70 Z M 1335 100 L 1340 100 C 1340 100 1340 125 1340 125 L 1335 125 L 1335 100 Z M 1335 130 L 1340 130 C 1340 130 1340 155 1340 155 L 1335 155 L 1335 130 Z M 1335 160 L 1340 160 C 1340 160 1340 185.0000305175781 1340 185.0000305175781 L 1335 185.0000305175781 L 1335 160 Z M 1335 190.0000305175781 L 1340 190.0000305175781 C 1340 190.0000305175781 1340 215.0000305175781 1340 215.0000305175781 L 1335 215.0000305175781 L 1335 190.0000305175781 Z M 1335 220.0000305175781 L 1340 220.0000305175781 C 1340 220.0000305175781 1340 245.0000305175781 1340 245.0000305175781 L 1335 245.0000305175781 L 1335 220.0000305175781 Z M 1335 250.0000305175781 L 1340 250.0000305175781 C 1340 250.0000305175781 1340 275.0000305175781 1340 275.0000305175781 L 1335 275.0000305175781 L 1335 250.0000305175781 Z M 1335 280.0000305175781 L 1340 280.0000305175781 C 1340 280.0000305175781 1340 305.0000305175781 1340 305.0000305175781 L 1335 305.0000305175781 L 1335 280.0000305175781 Z M 1335 310.0000305175781 L 1340 310.0000305175781 C 1340 310.0000305175781 1340 335.0000305175781 1340 335.0000305175781 L 1335 335.0000305175781 L 1335 310.0000305175781 Z M 1335 340.0000305175781 L 1340 340.0000305175781 C 1340 340.0000305175781 1340 365.0000305175781 1340 365.0000305175781 L 1335 365.0000305175781 L 1335 340.0000305175781 Z M 1335 370.0000305175781 L 1340 370.0000305175781 C 1340 370.0000305175781 1340 395.0000305175781 1340 395.0000305175781 L 1335 395.0000305175781 L 1335 370.0000305175781 Z M 1335 400.0000305175781 L 1340 400.0000305175781 C 1340 400.0000305175781 1340 425.0000305175781 1340 425.0000305175781 L 1335 425.0000305175781 L 1335 400.0000305175781 Z M 1335 430.0000305175781 L 1340 430.0000305175781 C 1340 430.0000305175781 1340 455 1340 455 L 1335 455 L 1335 430.0000305175781 Z M 1335 460 L 1340 460 C 1340 460 1340 485 1340 485 L 1335 485 L 1335 460 Z M 1335 490 L 1340 490 C 1340 490 1340 515 1340 515 L 1335 515 L 1335 490 Z M 1335 520 L 1340 520 C 1340 520 1340 545 1340 545 L 1335 545 L 1335 520 Z M 1335 550 L 1340 550 C 1340 550 1340 575 1340 575 L 1335 575 L 1335 550 Z M 1335 580 L 1340 580 C 1340 580 1340 605 1340 605 L 1335 605 L 1335 580 Z M 1335 610 L 1340 610 C 1340 610 1340 635 1340 635 L 1335 635 L 1335 610 Z M 1335 640 L 1340 640 C 1340 640 1340 665 1340 665 L 1335 665 L 1335 640 Z M 1335 670 L 1340 670 C 1340 670 1340 690.884033203125 1340 690.884033203125 L 1335 690.884033203125 L 1335 690.884033203125 L 1335 690.884033203125 L 1335 690.884033203125 L 1335 670 Z M 1305.884033203125 685.884033203125 L 1330.884033203125 685.884033203125 L 1330.884033203125 690.884033203125 C 1330.884033203125 690.884033203125 1305.884033203125 690.884033203125 1305.884033203125 690.884033203125 L 1305.884033203125 685.884033203125 Z M 1275.884033203125 685.884033203125 L 1300.884033203125 685.884033203125 L 1300.884033203125 690.884033203125 C 1300.884033203125 690.884033203125 1275.884033203125 690.884033203125 1275.884033203125 690.884033203125 L 1275.884033203125 685.884033203125 Z M 1245.884033203125 685.884033203125 L 1270.884033203125 685.884033203125 L 1270.884033203125 690.884033203125 C 1270.884033203125 690.884033203125 1245.884033203125 690.884033203125 1245.884033203125 690.884033203125 L 1245.884033203125 685.884033203125 Z M 1215.884033203125 685.884033203125 L 1240.884033203125 685.884033203125 L 1240.884033203125 690.884033203125 C 1240.884033203125 690.884033203125 1215.884033203125 690.884033203125 1215.884033203125 690.884033203125 L 1215.884033203125 685.884033203125 Z M 1185.884033203125 685.884033203125 L 1210.884033203125 685.884033203125 L 1210.884033203125 690.884033203125 C 1210.884033203125 690.884033203125 1185.884033203125 690.884033203125 1185.884033203125 690.884033203125 L 1185.884033203125 685.884033203125 Z M 1155.884033203125 685.884033203125 L 1180.884033203125 685.884033203125 L 1180.884033203125 690.884033203125 C 1180.884033203125 690.884033203125 1155.884033203125 690.884033203125 1155.884033203125 690.884033203125 L 1155.884033203125 685.884033203125 Z M 1125.884033203125 685.884033203125 L 1150.884033203125 685.884033203125 L 1150.884033203125 690.884033203125 C 1150.884033203125 690.884033203125 1125.884033203125 690.884033203125 1125.884033203125 690.884033203125 L 1125.884033203125 685.884033203125 Z M 1095.884033203125 685.884033203125 L 1120.884033203125 685.884033203125 L 1120.884033203125 690.884033203125 C 1120.884033203125 690.884033203125 1095.884033203125 690.884033203125 1095.884033203125 690.884033203125 L 1095.884033203125 685.884033203125 Z M 1065.884033203125 685.884033203125 L 1090.884033203125 685.884033203125 L 1090.884033203125 690.884033203125 C 1090.884033203125 690.884033203125 1065.884033203125 690.884033203125 1065.884033203125 690.884033203125 L 1065.884033203125 685.884033203125 Z M 1035.884033203125 685.884033203125 L 1060.884033203125 685.884033203125 L 1060.884033203125 690.884033203125 C 1060.884033203125 690.884033203125 1035.884033203125 690.884033203125 1035.884033203125 690.884033203125 L 1035.884033203125 685.884033203125 Z M 1005.884033203125 685.884033203125 L 1030.884033203125 685.884033203125 L 1030.884033203125 690.884033203125 C 1030.884033203125 690.884033203125 1005.884033203125 690.884033203125 1005.884033203125 690.884033203125 L 1005.884033203125 685.884033203125 Z M 975.884033203125 685.884033203125 L 1000.884033203125 685.884033203125 L 1000.884033203125 690.884033203125 C 1000.884033203125 690.884033203125 975.884033203125 690.884033203125 975.884033203125 690.884033203125 L 975.884033203125 685.884033203125 Z M 945.884033203125 685.884033203125 L 970.884033203125 685.884033203125 L 970.884033203125 690.884033203125 C 970.884033203125 690.884033203125 945.884033203125 690.884033203125 945.884033203125 690.884033203125 L 945.884033203125 685.884033203125 Z M 915.884033203125 685.884033203125 L 940.884033203125 685.884033203125 L 940.884033203125 690.884033203125 C 940.884033203125 690.884033203125 915.884033203125 690.884033203125 915.884033203125 690.884033203125 L 915.884033203125 685.884033203125 Z M 885.884033203125 685.884033203125 L 910.884033203125 685.884033203125 L 910.884033203125 690.884033203125 C 910.884033203125 690.884033203125 885.884033203125 690.884033203125 885.884033203125 690.884033203125 L 885.884033203125 685.884033203125 Z M 855.884033203125 685.884033203125 L 880.884033203125 685.884033203125 L 880.884033203125 690.884033203125 C 880.884033203125 690.884033203125 855.884033203125 690.884033203125 855.884033203125 690.884033203125 L 855.884033203125 685.884033203125 Z M 825.8839721679688 685.884033203125 L 850.884033203125 685.884033203125 L 850.884033203125 690.884033203125 C 850.884033203125 690.884033203125 825.8839721679688 690.884033203125 825.8839721679688 690.884033203125 L 825.8839721679688 685.884033203125 Z M 795.8839721679688 685.884033203125 L 820.8839721679688 685.884033203125 L 820.8839721679688 690.884033203125 C 820.8839721679688 690.884033203125 795.8839721679688 690.884033203125 795.8839721679688 690.884033203125 L 795.8839721679688 685.884033203125 Z M 765.8839721679688 685.884033203125 L 790.8839721679688 685.884033203125 L 790.8839721679688 690.884033203125 C 790.8839721679688 690.884033203125 765.8839721679688 690.884033203125 765.8839721679688 690.884033203125 L 765.8839721679688 685.884033203125 Z M 735.8839721679688 685.884033203125 L 760.8839721679688 685.884033203125 L 760.8839721679688 690.884033203125 C 760.8839721679688 690.884033203125 735.8839721679688 690.884033203125 735.8839721679688 690.884033203125 L 735.8839721679688 685.884033203125 Z M 705.8839721679688 685.884033203125 L 730.8839721679688 685.884033203125 L 730.8839721679688 690.884033203125 C 730.8839721679688 690.884033203125 705.8839721679688 690.884033203125 705.8839721679688 690.884033203125 L 705.8839721679688 685.884033203125 Z M 675.8839721679688 685.884033203125 L 700.8839721679688 685.884033203125 L 700.8839721679688 690.884033203125 C 700.8839721679688 690.884033203125 675.8839721679688 690.884033203125 675.8839721679688 690.884033203125 L 675.8839721679688 685.884033203125 Z M 645.8839721679688 685.884033203125 L 670.8839721679688 685.884033203125 L 670.8839721679688 690.884033203125 C 670.8839721679688 690.884033203125 645.8839721679688 690.884033203125 645.8839721679688 690.884033203125 L 645.8839721679688 685.884033203125 Z M 615.8839721679688 685.884033203125 L 640.8839721679688 685.884033203125 L 640.8839721679688 690.884033203125 C 640.8839721679688 690.884033203125 615.8839721679688 690.884033203125 615.8839721679688 690.884033203125 L 615.8839721679688 685.884033203125 Z M 585.8839721679688 685.884033203125 L 610.8839721679688 685.884033203125 L 610.8839721679688 690.884033203125 C 610.8839721679688 690.884033203125 585.8839721679688 690.884033203125 585.8839721679688 690.884033203125 L 585.8839721679688 685.884033203125 Z M 555.8839721679688 685.884033203125 L 580.8839721679688 685.884033203125 L 580.8839721679688 690.884033203125 C 580.8839721679688 690.884033203125 555.8839721679688 690.884033203125 555.8839721679688 690.884033203125 L 555.8839721679688 685.884033203125 Z M 525.8839721679688 685.884033203125 L 550.8839721679688 685.884033203125 L 550.8839721679688 690.884033203125 C 550.8839721679688 690.884033203125 525.8839721679688 690.884033203125 525.8839721679688 690.884033203125 L 525.8839721679688 685.884033203125 Z M 495.8839721679688 685.884033203125 L 520.8839721679688 685.884033203125 L 520.8839721679688 690.884033203125 C 520.8839721679688 690.884033203125 495.8839721679688 690.884033203125 495.8839721679688 690.884033203125 L 495.8839721679688 685.884033203125 Z M 465.8839721679688 685.884033203125 L 490.8839721679688 685.884033203125 L 490.8839721679688 690.884033203125 C 490.8839721679688 690.884033203125 465.8839721679688 690.884033203125 465.8839721679688 690.884033203125 L 465.8839721679688 685.884033203125 Z M 435.8839721679688 685.884033203125 L 460.8839721679688 685.884033203125 L 460.8839721679688 690.884033203125 C 460.8839721679688 690.884033203125 435.8839721679688 690.884033203125 435.8839721679688 690.884033203125 L 435.8839721679688 685.884033203125 Z M 405.8839721679688 685.884033203125 L 430.8839721679688 685.884033203125 L 430.8839721679688 690.884033203125 C 430.8839721679688 690.884033203125 405.8839721679688 690.884033203125 405.8839721679688 690.884033203125 L 405.8839721679688 685.884033203125 Z M 375.8839721679688 685.884033203125 L 400.8839721679688 685.884033203125 L 400.8839721679688 690.884033203125 C 400.8839721679688 690.884033203125 375.8839721679688 690.884033203125 375.8839721679688 690.884033203125 L 375.8839721679688 685.884033203125 Z M 345.8839721679688 685.884033203125 L 370.8839721679688 685.884033203125 L 370.8839721679688 690.884033203125 C 370.8839721679688 690.884033203125 345.8839721679688 690.884033203125 345.8839721679688 690.884033203125 L 345.8839721679688 685.884033203125 Z M 315.884033203125 685.884033203125 L 340.8839721679688 685.884033203125 L 340.8839721679688 690.884033203125 C 340.8839721679688 690.884033203125 315.884033203125 690.884033203125 315.884033203125 690.884033203125 L 315.884033203125 685.884033203125 Z M 285.884033203125 685.884033203125 L 310.884033203125 685.884033203125 L 310.884033203125 690.884033203125 C 310.884033203125 690.884033203125 285.884033203125 690.884033203125 285.884033203125 690.884033203125 L 285.884033203125 685.884033203125 Z M 255.884033203125 685.884033203125 L 280.884033203125 685.884033203125 L 280.884033203125 690.884033203125 C 280.884033203125 690.884033203125 255.884033203125 690.884033203125 255.884033203125 690.884033203125 L 255.884033203125 685.884033203125 Z M 225.884033203125 685.884033203125 L 250.884033203125 685.884033203125 L 250.884033203125 690.884033203125 C 250.884033203125 690.884033203125 225.884033203125 690.884033203125 225.884033203125 690.884033203125 L 225.884033203125 685.884033203125 Z M 195.884033203125 685.884033203125 L 220.884033203125 685.884033203125 L 220.884033203125 690.884033203125 C 220.884033203125 690.884033203125 195.884033203125 690.884033203125 195.884033203125 690.884033203125 L 195.884033203125 685.884033203125 Z M 165.884033203125 685.884033203125 L 190.884033203125 685.884033203125 L 190.884033203125 690.884033203125 C 190.884033203125 690.884033203125 165.884033203125 690.884033203125 165.884033203125 690.884033203125 L 165.884033203125 685.884033203125 Z M 135.884033203125 685.884033203125 L 160.884033203125 685.884033203125 L 160.884033203125 690.884033203125 C 160.884033203125 690.884033203125 135.884033203125 690.884033203125 135.884033203125 690.884033203125 L 135.884033203125 685.884033203125 Z M 105.884033203125 685.884033203125 L 130.884033203125 685.884033203125 L 130.884033203125 690.884033203125 C 130.884033203125 690.884033203125 105.884033203125 690.884033203125 105.884033203125 690.884033203125 L 105.884033203125 685.884033203125 Z M 75.884033203125 685.884033203125 L 100.884033203125 685.884033203125 L 100.884033203125 690.884033203125 C 100.884033203125 690.884033203125 75.884033203125 690.884033203125 75.884033203125 690.884033203125 L 75.884033203125 685.884033203125 Z M 45.884033203125 685.884033203125 L 70.884033203125 685.884033203125 L 70.884033203125 690.884033203125 C 70.884033203125 690.884033203125 45.884033203125 690.884033203125 45.884033203125 690.884033203125 L 45.884033203125 685.884033203125 Z M 15.884033203125 685.884033203125 L 40.884033203125 685.884033203125 L 40.884033203125 690.884033203125 C 40.884033203125 690.884033203125 15.884033203125 690.884033203125 15.884033203125 690.884033203125 L 15.884033203125 685.884033203125 Z M 0 676.7680053710938 L 5 676.7680053710938 L 5 685.884033203125 L 10.884033203125 685.884033203125 L 10.884033203125 690.884033203125 C 10.884033203125 690.884033203125 0 690.884033203125 0 690.884033203125 L 0 676.7680053710938 Z M 0 646.7680053710938 L 5 646.7680053710938 L 5 671.7680053710938 L 0 671.7680053710938 L 0 646.7680053710938 Z M 0 616.7680053710938 L 5 616.7680053710938 L 5 641.7680053710938 L 0 641.7680053710938 L 0 616.7680053710938 Z M 0 586.7680053710938 L 5 586.7680053710938 L 5 611.7680053710938 L 0 611.7680053710938 L 0 586.7680053710938 Z M 0 556.7680053710938 L 5 556.7680053710938 L 5 581.7680053710938 L 0 581.7680053710938 L 0 556.7680053710938 Z M 0 526.7680053710938 L 5 526.7680053710938 L 5 551.7680053710938 L 0 551.7680053710938 L 0 526.7680053710938 Z M 0 496.7680053710938 L 5 496.7680053710938 L 5 521.7680053710938 L 0 521.7680053710938 L 0 496.7680053710938 Z M 0 466.7680053710938 L 5 466.7680053710938 L 5 491.7680053710938 L 0 491.7680053710938 L 0 466.7680053710938 Z M 0 436.7680053710938 L 5 436.7680053710938 L 5 461.7680053710938 L 0 461.7680053710938 L 0 436.7680053710938 Z M 0 406.7680053710938 L 5 406.7680053710938 L 5 431.7680053710938 L 0 431.7680053710938 L 0 406.7680053710938 Z M 0 376.7680053710938 L 5 376.7680053710938 L 5 401.7680053710938 L 0 401.7680053710938 L 0 376.7680053710938 Z M 0 346.7680053710938 L 5 346.7680053710938 L 5 371.7680053710938 L 0 371.7680053710938 L 0 346.7680053710938 Z M 0 316.7680053710938 L 5 316.7680053710938 L 5 341.7680053710938 L 0 341.7680053710938 L 0 316.7680053710938 Z M 0 286.7680053710938 L 5 286.7680053710938 L 5 311.7680053710938 L 0 311.7680053710938 L 0 286.7680053710938 Z M 0 256.7680053710938 L 5 256.7680053710938 L 5 281.7680053710938 L 0 281.7680053710938 L 0 256.7680053710938 Z M 0 226.7680053710938 L 5 226.7680053710938 L 5 251.7680053710938 L 0 251.7680053710938 L 0 226.7680053710938 Z M 0 196.7680053710938 L 5 196.7680053710938 L 5 221.7680053710938 L 0 221.7680053710938 L 0 196.7680053710938 Z M 0 166.7680053710938 L 5 166.7680053710938 L 5 191.7680053710938 L 0 191.7680053710938 L 0 166.7680053710938 Z M 0 136.7680053710938 L 5 136.7680053710938 L 5 161.7680053710938 L 0 161.7680053710938 L 0 136.7680053710938 Z M 0 106.7680053710938 L 5 106.7680053710938 L 5 131.7680053710938 L 0 131.7680053710938 L 0 106.7680053710938 Z M 0 76.76800537109375 L 5 76.76800537109375 L 5 101.7680053710938 L 0 101.7680053710938 L 0 76.76800537109375 Z M 0 46.76800537109375 L 5 46.76800537109375 L 5 71.76800537109375 L 0 71.76800537109375 L 0 46.76800537109375 Z M 0 16.76800537109375 L 5 16.76800537109375 L 5 41.76800537109375 L 0 41.76800537109375 L 0 16.76800537109375 Z M 0 0 L 25 0 L 25 5 L 5 5 L 5 11.76800537109375 L 0 11.76800537109375 L 0 0 Z" stroke="none" fill="#ccceca"/>
  </g>
</svg>
